User Type,Username,Date,Text
,quadman77,2013-03-10T15:48Z,"Source - Jack.Reacher.2012.R6.WEBRip.XVID.AC3.HQ.Hive-CM8 (Thumbs Up   Respect)

Notes - Have upscaled this to 720p whilst maintaing the aspect ratio, was bored so tried something new, Enjoy =)

General
Complete name                            : Jack Reacher 2012 R6 WEBRip Upscaled 720p x264-TheStripple.mp4
Format                                   : MPEG-4
Format profile                           : Base Media
Codec ID                                 : isom
File size                                : 2.20 GiB
Duration                                 : 2h 10mn
Overall bit rate mode                    : Variable
Overall bit rate                         : 2 414 Kbps

Video
ID                                       : 1
Format                                   : AVC
Format/Info                              : Advanced Video Codec
Format profile                           : High@L4.1
Format settings, CABAC                   : Yes
Format settings, ReFrames                : 4 frames
Codec ID                                 : avc1
Codec ID/Info                            : Advanced Video Coding
Duration                                 : 2h 10mn
Bit rate                                 : 2 154 Kbps
Maximum bit rate                         : 6 466 Kbps
Width                                    : 1 280 pixels
Height                                   : 454 pixels
Display aspect ratio                     : 2.819
Frame rate mode                          : Constant
Frame rate                               : 29.970 fps
Color space                              : YUV
Chroma subsampling                       : 4:2:0
Bit depth                                : 8 bits
Scan type                                : Progressive
Bits/(Pixel*Frame)                       : 0.124
Stream size                              : 1.96 GiB (89%)
Writing library                          : x264 core 129 r2245 bc13772

Audio
ID                                       : 2
Format                                   : AAC
Format/Info                              : Advanced Audio Codec
Format profile                           : LC
Codec ID                                 : 40
Duration                                 : 2h 10mn
Bit rate mode                            : Variable
Bit rate                                 : 256 Kbps
Maximum bit rate                         : 262 Kbps
Channel(s)                               : 2 channels
Channel positions                        : Front: L R
Sampling rate                            : 48.0 KHz
Compression mode                         : Lossy
Stream size                              : 239 MiB (11%)"
,ns0l,2013-03-11T04:55Z,"Go fuck yourself asshole. this is a scaled CAM. The video and audio are both fucked up. don't you have something useful to do. maybe you need a virile boyfriend or someone to drop a grenade in your asshole. 
GUYS, DON'T WASTE YOUR TIME DOWNLOADING THIS TRASH."
,ns0l,2013-03-11T04:56Z,"Go fuck yourself asshole. This is a scaled CAM. The video and audio are both fucked up. Don't you have something useful to do. Maybe you need a virile boyfriend or someone to drop a grenade in your asshole. 
GUYS, DON'T WASTE YOUR TIME DOWNLOADING THIS TRASH."
,ryballs,2013-03-11T09:23Z,thx for saying its upscaled tvteam... ns0l read the title and go fuck urself
,ns0l,2013-03-11T14:56Z,You're welcome. Go ahead and download it you dickhead
,ns0l,2013-03-11T14:59Z,"and by the way, the title and the informations from Mr. TvTeam are the reason that let me download this fuck in the first place"
,ns0l,2013-03-11T17:57Z,"sorry, my mistake. but this is cam, not a webrip"
,MaroubraDave,2013-03-21T10:43Z,^what a douchebag....
